<svg width="20" height="20" viewBox="0 0 20 20" fill="none" xmlns="http://www.w3.org/2000/svg">
<path d="M16.5815 13.3334H6.58152C5.80655 13.3334 5.41906 13.3334 5.10114 13.4185C4.23841 13.6497 3.56454 14.3236 3.33337 15.1863" stroke="white" stroke-width="1.2"/>
<path d="M6.66663 5.83337H13.3333" stroke="white" stroke-width="1.2" stroke-linecap="round"/>
<path d="M6.66663 8.75H10.8333" stroke="white" stroke-width="1.2" stroke-linecap="round"/>
<path d="M16.25 15.8334H6.66663" stroke="white" stroke-width="1.2" stroke-linecap="round"/>
<path d="M8.33337 18.3333C5.97635 18.3333 4.79784 18.3333 4.06561 17.601C3.33337 16.8688 3.33337 15.6903 3.33337 13.3333V6.66663C3.33337 4.3096 3.33337 3.13109 4.06561 2.39886C4.79784 1.66663 5.97635 1.66663 8.33337 1.66663H11.6667C14.0237 1.66663 15.2022 1.66663 15.9345 2.39886C16.6667 3.13109 16.6667 4.3096 16.6667 6.66663M11.6667 18.3333C14.0237 18.3333 15.2022 18.3333 15.9345 17.601C16.6667 16.8688 16.6667 15.6903 16.6667 13.3333V9.99996" stroke="white" stroke-width="1.2" stroke-linecap="round"/>
</svg>
