<svg width="20" height="21" viewBox="0 0 20 21" fill="none" xmlns="http://www.w3.org/2000/svg">
<g clip-path="url(#clip0_1_2079)">
<path d="M17.2727 5.95451V15.0454C17.2727 18.6818 16.3637 19.5909 12.7273 19.5909H7.27275C3.63639 19.5909 2.72729 18.6818 2.72729 15.0454V5.95451C2.72729 2.31815 3.63639 1.40906 7.27275 1.40906H12.7273C16.3637 1.40906 17.2727 2.31815 17.2727 5.95451Z" stroke="#3C7098" stroke-width="1.2" stroke-linecap="round" stroke-linejoin="round"/>
<path d="M11.8181 4.59094H8.18176" stroke="#3C7098" stroke-width="1.2" stroke-linecap="round" stroke-linejoin="round"/>
<path d="M9.99991 16.9545C10.7781 16.9545 11.409 16.3236 11.409 15.5454C11.409 14.7673 10.7781 14.1364 9.99991 14.1364C9.22169 14.1364 8.59082 14.7673 8.59082 15.5454C8.59082 16.3236 9.22169 16.9545 9.99991 16.9545Z" stroke="#3C7098" stroke-width="1.2" stroke-linecap="round" stroke-linejoin="round"/>
</g>
<defs>
<clipPath id="clip0_1_2079">
<rect width="20" height="20" fill="white" transform="translate(0 0.5)"/>
</clipPath>
</defs>
</svg>
