<svg width="25" height="24" viewBox="0 0 25 24" fill="none" xmlns="http://www.w3.org/2000/svg">
<path d="M2.58416 2.7512C2.72155 2.36044 3.1497 2.15503 3.54047 2.29242L3.84187 2.39838C4.45839 2.61511 4.98203 2.79919 5.39411 3.00139C5.83474 3.21759 6.21259 3.48393 6.49677 3.89979C6.77875 4.31243 6.89517 4.76515 6.9489 5.26153C6.97295 5.48373 6.98564 5.72967 6.99233 6H17.6305C19.3155 6 20.8323 6 21.2762 6.57708C21.7202 7.15417 21.5466 8.02369 21.1995 9.76275L20.6997 12.1875C20.3846 13.7164 20.227 14.4808 19.6753 14.9304C19.1236 15.38 18.3431 15.38 16.7821 15.38H11.4792C8.69028 15.38 7.29583 15.38 6.42943 14.4662C5.56302 13.5523 5.49979 12.5816 5.49979 9.64V7.03832C5.49979 6.29837 5.49877 5.80316 5.45761 5.42295C5.41828 5.0596 5.34858 4.87818 5.25832 4.74609C5.17026 4.61723 5.03659 4.4968 4.73336 4.34802C4.41052 4.18961 3.97177 4.03406 3.30416 3.79934L3.04295 3.7075C2.65218 3.57012 2.44678 3.14197 2.58416 2.7512Z" fill="white"/>
<path d="M8 18C8.82843 18 9.5 18.6716 9.5 19.5C9.5 20.3284 8.82843 21 8 21C7.17157 21 6.5 20.3284 6.5 19.5C6.5 18.6716 7.17157 18 8 18Z" fill="white"/>
<path d="M17 18.0001C17.8284 18.0001 18.5 18.6716 18.5 19.5001C18.5 20.3285 17.8284 21.0001 17 21.0001C16.1716 21.0001 15.5 20.3285 15.5 19.5001C15.5 18.6716 16.1716 18.0001 17 18.0001Z" fill="white"/>
</svg>
