<svg width="20" height="20" viewBox="0 0 20 20" fill="none" xmlns="http://www.w3.org/2000/svg">
<path d="M9.99996 1.66663C9.44421 1.66663 8.90054 1.72112 8.37429 1.82523C8.03568 1.89222 7.81548 2.22103 7.88247 2.55964C7.94946 2.89826 8.27826 3.11845 8.61688 3.05147C9.06371 2.96307 9.52613 2.91663 9.99996 2.91663C10.4738 2.91663 10.9362 2.96307 11.383 3.05147C11.7216 3.11845 12.0505 2.89825 12.1175 2.55964C12.1845 2.22103 11.9642 1.89222 11.6256 1.82523C11.0994 1.72112 10.5557 1.66663 9.99996 1.66663ZM6.06478 4.10933C6.35162 3.9173 6.42848 3.52911 6.23644 3.24228C6.04442 2.95544 5.65622 2.87859 5.36939 3.07062C4.4609 3.67884 3.67884 4.46089 3.07062 5.36939C2.87859 5.65622 2.95544 6.04442 3.24228 6.23644C3.52911 6.42848 3.9173 6.35162 4.10933 6.06478C4.62665 5.29207 5.29207 4.62665 6.06478 4.10933ZM14.6305 3.07062C14.3437 2.87859 13.9555 2.95544 13.7635 3.24228C13.5715 3.52911 13.6483 3.9173 13.9351 4.10933C14.7079 4.62665 15.3733 5.29207 15.8906 6.06478C16.0826 6.35162 16.4708 6.42848 16.7576 6.23644C17.0445 6.04442 17.1213 5.65622 16.9293 5.36939C16.321 4.4609 15.539 3.67884 14.6305 3.07062ZM18.1747 8.37429C18.1077 8.03568 17.7789 7.81548 17.4403 7.88247C17.1016 7.94946 16.8815 8.27826 16.9485 8.61688C17.0369 9.06371 17.0833 9.52613 17.0833 9.99996C17.0833 10.4738 17.0369 10.9362 16.9485 11.383C16.8815 11.7216 17.1016 12.0505 17.4403 12.1175C17.7789 12.1845 18.1077 11.9642 18.1747 11.6256C18.2788 11.0994 18.3333 10.5557 18.3333 9.99996C18.3333 9.44421 18.2788 8.90054 18.1747 8.37429ZM3.05147 8.61688C3.11845 8.27827 2.89825 7.94946 2.55964 7.88247C2.22103 7.81548 1.89222 8.03568 1.82523 8.37429C1.72112 8.90054 1.66663 9.44421 1.66663 9.99996C1.66663 10.5557 1.72112 11.0994 1.82523 11.6256C1.89222 11.9642 2.22103 12.1845 2.55964 12.1175C2.89826 12.0505 3.11845 11.7216 3.05147 11.383C2.96307 10.9362 2.91663 10.4738 2.91663 9.99996C2.91663 9.52613 2.96307 9.06371 3.05147 8.61688ZM4.10933 13.9351C3.9173 13.6483 3.52911 13.5715 3.24228 13.7635C2.95544 13.9555 2.87859 14.3437 3.07062 14.6305C3.67884 15.539 4.46089 16.321 5.36939 16.9293C5.65622 17.1213 6.04442 17.0445 6.23644 16.7576C6.42848 16.4708 6.35162 16.0826 6.06478 15.8906C5.29207 15.3733 4.62665 14.7079 4.10933 13.9351ZM16.9293 14.6305C17.1213 14.3437 17.0445 13.9555 16.7576 13.7635C16.4708 13.5715 16.0826 13.6483 15.8906 13.9351C15.3733 14.7079 14.7079 15.3733 13.9351 15.8906C13.6483 16.0826 13.5715 16.4708 13.7635 16.7576C13.9555 17.0445 14.3437 17.1213 14.6305 16.9293C15.539 16.321 16.321 15.539 16.9293 14.6305ZM8.61688 16.9485C8.27827 16.8815 7.94946 17.1016 7.88247 17.4403C7.81548 17.7789 8.03568 18.1077 8.37429 18.1747C8.90054 18.2788 9.44421 18.3333 9.99996 18.3333C10.5557 18.3333 11.0994 18.2788 11.6256 18.1747C11.9642 18.1077 12.1845 17.7789 12.1175 17.4403C12.0505 17.1016 11.7216 16.8815 11.383 16.9485C10.9362 17.0369 10.4738 17.0833 9.99996 17.0833C9.52613 17.0833 9.06371 17.0369 8.61688 16.9485ZM7.49996 7.70614C7.49996 6.91315 8.35204 6.41146 9.04629 6.79567L13.8445 9.45088C14.0433 9.56096 14.1666 9.77013 14.1666 9.99721C14.1666 10.2243 14.0433 10.4335 13.8445 10.5435L9.04629 13.1987C8.35204 13.5829 7.49996 13.0812 7.49996 12.2882V7.70614Z" fill="white"/>
</svg>
